<?xml version="1.0" encoding="utf-8"?>
<!-- Generator: Adobe Illustrator 15.1.0, SVG Export Plug-In . SVG Version: 6.00 Build 0)  -->
<!DOCTYPE svg PUBLIC "-//W3C//DTD SVG 1.1//EN" "http://www.w3.org/Graphics/SVG/1.1/DTD/svg11.dtd">
<svg version="1.1" id="Layer_1" xmlns="http://www.w3.org/2000/svg" xmlns:xlink="http://www.w3.org/1999/xlink" x="0px" y="0px"
	 width="595px" height="106px" viewBox="0 157.5 595 106" enable-background="new 0 157.5 595 106" xml:space="preserve">
<g>
	<path fill="#FFC70F" d="M55.781,241.145l-31.377,15.805l6.043-33.701L5.113,199.541l34.863-4.881l15.805-30.68l15.805,30.68
		l34.863,4.881l-25.334,23.707l6.043,33.701"/>
	<path fill="#CA8600" d="M55.781,169.094l13.016,25.566l1.162,2.092l2.324,0.232l29.053,3.951l-20.918,19.523l-1.859,1.627
		l0.465,2.557l4.881,27.891l-26.264-13.248l-1.859-0.93l-2.092,1.162l-26.264,13.248l4.881-27.891l0.465-2.557l-1.859-1.627
		L9.994,201.168l28.82-3.951l2.324-0.232l1.162-2.092L55.781,169.094 M55.781,158.867l-17.199,33.701L0,197.914l27.891,26.264
		l-6.508,36.955l34.398-17.432l34.398,17.432l-6.508-36.955l27.891-26.264l-38.582-5.346L55.781,158.867z"/>
</g>
<g>
	<path fill="#FFC70F" d="M297.781,241.145l-31.377,15.805l6.043-33.701l-25.334-23.707l34.863-4.881l15.805-30.68l15.805,30.68
		l34.863,4.881l-25.334,23.707l6.043,33.701"/>
	<path fill="#CA8600" d="M297.781,169.094l13.016,25.566l1.162,2.092l2.324,0.232l29.053,3.951l-20.918,19.523l-1.859,1.627
		l0.465,2.557l4.881,27.891l-26.264-13.248l-1.859-0.93l-2.092,1.162l-26.264,13.248l4.881-27.891l0.465-2.557l-1.859-1.627
		l-20.918-19.523l28.82-3.951l2.324-0.232l1.162-2.092L297.781,169.094 M297.781,158.867l-17.199,33.701L242,197.914l27.891,26.264
		l-6.508,36.955l34.398-17.432l34.398,17.432l-6.508-36.955l27.891-26.264l-38.582-5.346L297.781,158.867z"/>
</g>
<g>
	<path fill="#FFC70F" d="M177.781,240.145l-31.377,15.805l6.043-33.701l-25.334-23.707l34.863-4.881l15.805-30.68l15.805,30.68
		l34.863,4.881l-25.334,23.707l6.043,33.701"/>
	<path fill="#CA8600" d="M177.781,168.094l13.016,25.566l1.162,2.092l2.324,0.232l29.053,3.951l-20.918,19.523l-1.859,1.627
		l0.465,2.557l4.881,27.891l-26.264-13.248l-1.859-0.93l-2.092,1.162l-26.264,13.248l4.881-27.891l0.465-2.557l-1.859-1.627
		l-20.918-19.523l28.82-3.951l2.324-0.232l1.162-2.092L177.781,168.094 M177.781,157.867l-17.199,33.701L122,196.914l27.891,26.264
		l-6.508,36.955l34.398-17.432l34.398,17.432l-6.508-36.955l27.891-26.264l-38.582-5.346L177.781,157.867z"/>
</g>
<g>
	<path fill="#FFC70F" d="M414.781,240.145l-31.377,15.805l6.043-33.701l-25.334-23.707l34.863-4.881l15.805-30.68l15.805,30.68
		l34.863,4.881l-25.334,23.707l6.043,33.701"/>
	<path fill="#CA8600" d="M414.781,168.094l13.016,25.566l1.162,2.092l2.324,0.232l29.053,3.951l-20.918,19.523l-1.859,1.627
		l0.465,2.557l4.881,27.891l-26.264-13.248l-1.859-0.93l-2.092,1.162l-26.264,13.248l4.881-27.891l0.465-2.557l-1.859-1.627
		l-20.918-19.523l28.82-3.951l2.324-0.232l1.162-2.092L414.781,168.094 M414.781,157.867l-17.199,33.701L359,196.914l27.891,26.264
		l-6.508,36.955l34.398-17.432l34.398,17.432l-6.508-36.955l27.891-26.264l-38.582-5.346L414.781,157.867z"/>
</g>
<g>
	<path fill="#FFC70F" d="M532.781,240.145l-31.377,15.805l6.043-33.701l-25.334-23.707l34.863-4.881l15.805-30.68l15.805,30.68
		l34.863,4.881l-25.334,23.707l6.043,33.701"/>
	<path fill="#CA8600" d="M532.781,168.094l13.016,25.566l1.162,2.092l2.324,0.232l29.053,3.951l-20.918,19.523l-1.859,1.627
		l0.465,2.557l4.881,27.891l-26.264-13.248l-1.859-0.93l-2.092,1.162l-26.264,13.248l4.881-27.891l0.465-2.557l-1.859-1.627
		l-20.918-19.523l28.82-3.951l2.324-0.232l1.162-2.092L532.781,168.094 M532.781,157.867l-17.199,33.701L477,196.914l27.891,26.264
		l-6.508,36.955l34.398-17.432l34.398,17.432l-6.508-36.955l27.891-26.264l-38.582-5.346L532.781,157.867z"/>
</g>
</svg>
